<?xml version="1.0" encoding="UTF-8" standalone="no"?>
<!DOCTYPE svg PUBLIC "-//W3C//DTD SVG 1.1//EN" "http://www.w3.org/Graphics/SVG/1.1/DTD/svg11.dtd">
<svg xmlns="http://www.w3.org/2000/svg" xmlns:xlink="http://www.w3.org/1999/xlink" version="1.1" width="473.466pt" height="180.93pt" viewBox="0 0 473.466 180.93">
<g enable-background="new">
<path transform="matrix(1,0,0,-1,89.877,19.077988)" stroke-width=".79701" stroke-linecap="butt" stroke-miterlimit="10" stroke-linejoin="miter" fill="none" stroke="#000000" d="M 18.68019 0 C 18.68019 10.31691 10.31691 18.68019 0 18.68019 C -10.31691 18.68019 -18.68019 10.31691 -18.68019 0 C -18.68019 -10.31691 -10.31691 -18.68019 0 -18.68019 C 10.31691 -18.68019 18.68019 -10.31691 18.68019 0 Z M 0 0 "/>
<symbol id="font_0_2">
<path d="M .205 .64000007 C .205 .66400006 .205 .666 .18200003 .666 C .120000008 .60200008 .032000007 .60200008 0 .60200008 L 0 .57100006 C .020000004 .57100006 .07900001 .57100006 .13100001 .597 L .13100001 .079 C .13100001 .043 .128 .031000002 .038000004 .031000002 L .0060000049 .031000002 L .0060000049 0 C .04100001 .003 .128 .003 .168 .003 C .20800002 .003 .29500003 .003 .33000005 0 L .33000005 .031000002 L .29800005 .031000002 C .20800002 .031000002 .205 .042000005 .205 .079 L .205 .64000007 Z "/>
</symbol>
<use xlink:href="#font_0_2" transform="matrix(14.943899,0,0,-14.943899,87.47101,23.892975)"/>
<path transform="matrix(1,0,0,-1,89.877,19.077988)" stroke-width=".79701" stroke-linecap="butt" stroke-miterlimit="10" stroke-linejoin="miter" fill="none" stroke="#000000" d="M -38.58308 0 L -20.71489 0 "/>
<path transform="matrix(1,0,0,-1,69.16211,19.077988)" d="M 1.0361 0 C -.25902 .25902 -1.55415 .77707 -3.1083 1.68365 C -1.55415 .51805 -1.55415 -.51805 -3.1083 -1.68365 C -1.55415 -.77707 -.25902 -.25902 1.0361 0 Z "/>
<path transform="matrix(1,0,0,-1,69.16211,19.077988)" stroke-width=".79701" stroke-linecap="butt" stroke-linejoin="round" fill="none" stroke="#000000" d="M 1.0361 0 C -.25902 .25902 -1.55415 .77707 -3.1083 1.68365 C -1.55415 .51805 -1.55415 -.51805 -3.1083 -1.68365 C -1.55415 -.77707 -.25902 -.25902 1.0361 0 Z "/>
<path transform="matrix(1,0,0,-1,89.877,19.077988)" stroke-width="2.19182" stroke-linecap="butt" stroke-miterlimit="10" stroke-linejoin="miter" fill="none" stroke="#000000" d="M -51.42181 -112.62227 C -51.42181 -102.30536 -59.7851 -93.94206 -70.10202 -93.94206 C -80.41893 -93.94206 -88.78223 -102.30536 -88.78223 -112.62227 C -88.78223 -122.93918 -80.41893 -131.30248 -70.10202 -131.30248 C -59.7851 -131.30248 -51.42181 -122.93918 -51.42181 -112.62227 Z M -70.10202 -112.62227 "/>
<path transform="matrix(1,0,0,-1,89.877,19.077988)" stroke-width=".59776" stroke-linecap="butt" stroke-miterlimit="10" stroke-linejoin="miter" fill="none" stroke="#ffffff" d="M -51.42181 -112.62227 C -51.42181 -102.30536 -59.7851 -93.94206 -70.10202 -93.94206 C -80.41893 -93.94206 -88.78223 -102.30536 -88.78223 -112.62227 C -88.78223 -122.93918 -80.41893 -131.30248 -70.10202 -131.30248 C -59.7851 -131.30248 -51.42181 -122.93918 -51.42181 -112.62227 Z M -70.10202 -112.62227 "/>
<symbol id="font_0_3">
<path d="M .07700001 .07700001 L .18300002 .18 C .33900003 .31800003 .39900003 .372 .39900003 .47200004 C .39900003 .586 .30900003 .666 .18700002 .666 C .074 .666 0 .574 0 .485 C 0 .42900003 .05 .42900003 .053000008 .42900003 C .07000001 .42900003 .105000007 .441 .105000007 .48200003 C .105000007 .508 .08700001 .53400006 .052000006 .53400006 C .044000005 .53400006 .042000008 .53400006 .039 .53300008 C .062000004 .59800007 .11600001 .63500007 .17400001 .63500007 C .26500003 .63500007 .308 .554 .308 .47200004 C .308 .39200003 .25800003 .31300003 .20300003 .25100003 L .011000004 .037 C 0 .026 0 .024 0 0 L .37100003 0 L .39900003 .17400001 L .374 .17400001 C .36900003 .14400001 .36200003 .1 .352 .085 C .345 .07700001 .279 .07700001 .257 .07700001 L .07700001 .07700001 Z "/>
</symbol>
<use xlink:href="#font_0_3" transform="matrix(14.943899,0,0,-14.943899,16.787196,136.51398)"/>
<path transform="matrix(1,0,0,-1,89.877,19.077988)" stroke-width="2.19182" stroke-linecap="butt" stroke-miterlimit="10" stroke-linejoin="miter" fill="none" stroke="#000000" d="M 88.78223 -112.62227 C 88.78223 -102.30536 80.41893 -93.94206 70.10202 -93.94206 C 59.7851 -93.94206 51.42181 -102.30536 51.42181 -112.62227 C 51.42181 -122.93918 59.7851 -131.30248 70.10202 -131.30248 C 80.41893 -131.30248 88.78223 -122.93918 88.78223 -112.62227 Z M 70.10202 -112.62227 "/>
<path transform="matrix(1,0,0,-1,89.877,19.077988)" stroke-width=".59776" stroke-linecap="butt" stroke-miterlimit="10" stroke-linejoin="miter" fill="none" stroke="#ffffff" d="M 88.78223 -112.62227 C 88.78223 -102.30536 80.41893 -93.94206 70.10202 -93.94206 C 59.7851 -93.94206 51.42181 -102.30536 51.42181 -112.62227 C 51.42181 -122.93918 59.7851 -131.30248 70.10202 -131.30248 C 80.41893 -131.30248 88.78223 -122.93918 88.78223 -112.62227 Z M 70.10202 -112.62227 "/>
<symbol id="font_0_4">
<path d="M .24800003 .37400005 C .33 .40100003 .388 .47100006 .388 .55 C .388 .632 .3 .688 .204 .688 C .10300001 .688 .027000003 .628 .027000003 .55200007 C .027000003 .519 .049000004 .5 .078 .5 C .109000008 .5 .12900001 .522 .12900001 .55100008 C .12900001 .6010001 .082 .6010001 .067 .6010001 C .098 .65000006 .164 .66300007 .20000002 .66300007 C .24100003 .66300007 .29600004 .64100006 .29600004 .55100008 C .29600004 .53900006 .29400004 .48100005 .268 .43700005 C .238 .38900004 .204 .38600005 .17900002 .38500003 C .171 .38400004 .14700002 .38200004 .14000002 .38200004 C .132 .38100005 .125 .38000003 .125 .37000004 C .125 .35900004 .132 .35900004 .14900002 .35900004 L .19300002 .35900004 C .275 .35900004 .312 .29100005 .312 .193 C .312 .057000005 .24300003 .028 .199 .028 C .15600002 .028 .081 .045 .046000005 .104 C .081 .09900001 .11200001 .12100001 .11200001 .15900001 C .11200001 .19500001 .085 .215 .056 .215 C .031999999 .215 0 .201 0 .157 C 0 .06600001 .093 0 .20200002 0 C .32400004 0 .41500003 .091000009 .41500003 .193 C .41500003 .27500005 .35200004 .35300005 .24800003 .37400005 Z "/>
</symbol>
<use xlink:href="#font_0_4" transform="matrix(14.943899,0,0,-14.943899,156.86965,136.84275)"/>
<path transform="matrix(1,0,0,-1,89.877,19.077988)" stroke-width=".79701" stroke-linecap="butt" stroke-miterlimit="10" stroke-linejoin="miter" fill="none" stroke="#000000" d="M 312.35984 0 C 312.35984 10.31691 303.99656 18.68019 293.67964 18.68019 C 283.36274 18.68019 274.99943 10.31691 274.99943 0 C 274.99943 -10.31691 283.36274 -18.68019 293.67964 -18.68019 C 303.99656 -18.68019 312.35984 -10.31691 312.35984 0 Z M 293.67964 0 "/>
<symbol id="font_0_5">
<path d="M .266 .165 L .266 .078 C .266 .042000005 .26400004 .031000002 .19000001 .031000002 L .16900002 .031000002 L .16900002 0 C .21000001 .003 .26200003 .003 .30400003 .003 C .34600003 .003 .39900003 .003 .44000004 0 L .44000004 .031000002 L .41900004 .031000002 C .34500004 .031000002 .34300003 .042000005 .34300003 .078 L .34300003 .165 L .44300003 .165 L .44300003 .19600001 L .34300003 .19600001 L .34300003 .651 C .34300003 .671 .34300003 .67700007 .32700003 .67700007 C .31800003 .67700007 .31500004 .67700007 .307 .665 L 0 .19600001 L 0 .165 L .266 .165 M .272 .19600001 L .028 .19600001 L .272 .569 L .272 .19600001 Z "/>
</symbol>
<use xlink:href="#font_0_5" transform="matrix(14.943899,0,0,-14.943899,380.23545,23.892975)"/>
<path transform="matrix(1,0,0,-1,89.877,19.077988)" stroke-width=".79701" stroke-linecap="butt" stroke-miterlimit="10" stroke-linejoin="miter" fill="none" stroke="#000000" d="M 255.13234 0 L 273.00053 0 "/>
<path transform="matrix(1,0,0,-1,362.8775,19.077988)" d="M 1.0361 0 C -.25902 .25902 -1.55415 .77707 -3.1083 1.68365 C -1.55415 .51805 -1.55415 -.51805 -3.1083 -1.68365 C -1.55415 -.77707 -.25902 -.25902 1.0361 0 Z "/>
<path transform="matrix(1,0,0,-1,362.8775,19.077988)" stroke-width=".79701" stroke-linecap="butt" stroke-linejoin="round" fill="none" stroke="#000000" d="M 1.0361 0 C -.25902 .25902 -1.55415 .77707 -3.1083 1.68365 C -1.55415 .51805 -1.55415 -.51805 -3.1083 -1.68365 C -1.55415 -.77707 -.25902 -.25902 1.0361 0 Z "/>
<path transform="matrix(1,0,0,-1,89.877,19.077988)" stroke-width="2.19182" stroke-linecap="butt" stroke-miterlimit="10" stroke-linejoin="miter" fill="none" stroke="#000000" d="M 242.29361 -112.62227 C 242.29361 -102.30536 233.93032 -93.94206 223.6134 -93.94206 C 213.2965 -93.94206 204.9332 -102.30536 204.9332 -112.62227 C 204.9332 -122.93918 213.2965 -131.30248 223.6134 -131.30248 C 233.93032 -131.30248 242.29361 -122.93918 242.29361 -112.62227 Z M 223.6134 -112.62227 "/>
<path transform="matrix(1,0,0,-1,89.877,19.077988)" stroke-width=".59776" stroke-linecap="butt" stroke-miterlimit="10" stroke-linejoin="miter" fill="none" stroke="#ffffff" d="M 242.29361 -112.62227 C 242.29361 -102.30536 233.93032 -93.94206 223.6134 -93.94206 C 213.2965 -93.94206 204.9332 -102.30536 204.9332 -112.62227 C 204.9332 -122.93918 213.2965 -131.30248 223.6134 -131.30248 C 233.93032 -131.30248 242.29361 -122.93918 242.29361 -112.62227 Z M 223.6134 -112.62227 "/>
<symbol id="font_0_6">
<path d="M .39900003 .223 C .39900003 .34200005 .317 .44200004 .209 .44200004 C .16100002 .44200004 .118000019 .42600004 .082 .39100004 L .082 .586 C .10200001 .58000007 .135 .573 .16700001 .573 C .29 .573 .36 .66400006 .36 .67700007 C .36 .683 .357 .688 .35 .688 C .349 .688 .347 .688 .342 .68500009 C .322 .67600008 .273 .656 .20600002 .656 C .16600001 .656 .120000008 .66300007 .073 .6840001 C .065 .68700006 .06300001 .68700006 .061000009 .68700006 C .051000004 .68700006 .051000004 .679 .051000004 .66300007 L .051000004 .36700005 C .051000004 .34900005 .051000004 .34100003 .065 .34100003 C .07200001 .34100003 .074 .34400005 .07800001 .35000003 C .08900002 .36600004 .12600002 .42000006 .207 .42000006 C .259 .42000006 .284 .37400005 .292 .35600005 C .308 .31900005 .31 .28000004 .31 .23 C .31 .19500001 .31 .135 .286 .093 C .262 .054000006 .22500001 .028 .17900002 .028 C .106000009 .028 .049000008 .08100001 .032 .14000002 C .035 .13900002 .038000008 .13800001 .049000008 .13800001 C .082 .13800001 .09900001 .163 .09900001 .187 C .09900001 .21100001 .082 .23600002 .049000008 .23600002 C .035 .23600002 0 .22900002 0 .18300002 C 0 .097 .069000009 0 .18100001 0 C .297 0 .39900003 .096 .39900003 .223 Z "/>
</symbol>
<use xlink:href="#font_0_6" transform="matrix(14.943899,0,0,-14.943899,310.4992,136.84275)"/>
<path transform="matrix(1,0,0,-1,89.877,19.077988)" stroke-width="2.19182" stroke-linecap="butt" stroke-miterlimit="10" stroke-linejoin="miter" fill="none" stroke="#000000" d="M 382.4977 -112.62227 C 382.4977 -102.30536 374.13444 -93.94206 363.8175 -93.94206 C 353.5006 -93.94206 345.1373 -102.30536 345.1373 -112.62227 C 345.1373 -122.93918 353.5006 -131.30248 363.8175 -131.30248 C 374.13444 -131.30248 382.4977 -122.93918 382.4977 -112.62227 Z M 363.8175 -112.62227 "/>
<path transform="matrix(1,0,0,-1,89.877,19.077988)" stroke-width=".59776" stroke-linecap="butt" stroke-miterlimit="10" stroke-linejoin="miter" fill="none" stroke="#ffffff" d="M 382.4977 -112.62227 C 382.4977 -102.30536 374.13444 -93.94206 363.8175 -93.94206 C 353.5006 -93.94206 345.1373 -102.30536 345.1373 -112.62227 C 345.1373 -122.93918 353.5006 -131.30248 363.8175 -131.30248 C 374.13444 -131.30248 382.4977 -122.93918 382.4977 -112.62227 Z M 363.8175 -112.62227 "/>
<symbol id="font_0_7">
<path d="M .089999999 .35000003 L .089999999 .37400005 C .089999999 .62700006 .21400002 .66300007 .26500003 .66300007 C .28900004 .66300007 .33100004 .65700009 .35300002 .623 C .33800004 .623 .298 .623 .298 .57800009 C .298 .54700008 .32200004 .53200009 .344 .53200009 C .36 .53200009 .39000003 .54100009 .39000003 .58000007 C .39000003 .64000007 .34600003 .688 .263 .688 C .13499999 .688 0 .559 0 .33800004 C 0 .071 .116000007 0 .20900002 0 C .32000003 0 .41500003 .094000007 .41500003 .22600001 C .41500003 .35300005 .32600004 .44900004 .215 .44900004 C .14700002 .44900004 .11000001 .39800004 .089999999 .35000003 M .20900002 .028 C .146 .028 .116000007 .088 .11000001 .103 C .092 .15 .092 .23 .092 .24800001 C .092 .32600004 .124000009 .42600004 .21400002 .42600004 C .23000002 .42600004 .27600003 .42600004 .307 .36400003 C .32500003 .32700003 .32500003 .27600003 .32500003 .22700002 C .32500003 .179 .32500003 .12900001 .30800004 .093 C .27800004 .033000005 .23200003 .028 .20900002 .028 Z "/>
</symbol>
<use xlink:href="#font_0_7" transform="matrix(14.943899,0,0,-14.943899,450.58164,136.84275)"/>
<path transform="matrix(1,0,0,-1,89.877,19.077988)" stroke-width=".3985" stroke-linecap="butt" stroke-miterlimit="10" stroke-linejoin="miter" fill="none" stroke="#000000" d=""/>
<path transform="matrix(1,0,0,-1,89.877,19.077988)" stroke-width=".79701" stroke-linecap="butt" stroke-miterlimit="10" stroke-linejoin="miter" fill="none" stroke="#000000" d="M -10.18822 -16.36806 L -58.92732 -94.66934 "/>
<path transform="matrix(-.52843,.84895,.84895,.52843,30.9497,113.74733)" d="M 1.0361 0 C -.25902 .25902 -1.55415 .77707 -3.1083 1.68365 C -1.55415 .51805 -1.55415 -.51805 -3.1083 -1.68365 C -1.55415 -.77707 -.25902 -.25902 1.0361 0 Z "/>
<path transform="matrix(-.52843,.84895,.84895,.52843,30.9497,113.74733)" stroke-width=".79701" stroke-linecap="butt" stroke-linejoin="round" fill="none" stroke="#000000" d="M 1.0361 0 C -.25902 .25902 -1.55415 .77707 -3.1083 1.68365 C -1.55415 .51805 -1.55415 -.51805 -3.1083 -1.68365 C -1.55415 -.77707 -.25902 -.25902 1.0361 0 Z "/>
<symbol id="font_0_8">
<path d="M .291 .087000008 C .29500003 .047000003 .32200004 .005000001 .36900003 .005000001 C .39000003 .005000001 .45100004 .019000002 .45100004 .1 L .45100004 .15600002 L .42600004 .15600002 L .42600004 .1 C .42600004 .042000005 .40100003 .036000004 .39000003 .036000004 C .35700003 .036000004 .35300002 .081 .35300002 .086 L .35300002 .286 C .35300002 .328 .35300002 .367 .31700004 .404 C .27800004 .44300003 .22800002 .45900003 .18 .45900003 C .098 .45900003 .029 .41200004 .029 .34600003 C .029 .316 .049000004 .29900003 .075 .29900003 C .10300001 .29900003 .121 .31900005 .121 .34500004 C .121 .35700003 .116000007 .39000003 .07 .39100004 C .09700001 .42600004 .146 .43700005 .178 .43700005 C .22700003 .43700005 .284 .39800004 .284 .30900003 L .284 .272 C .23300001 .26900003 .16300002 .26600004 .1 .23600002 C .024999999 .20200002 0 .15000002 0 .106000009 C 0 .025000003 .09700001 0 .16 0 C .22600001 0 .272 .040000004 .291 .087000008 M .284 .25100003 L .284 .15100001 C .284 .056 .21200001 .022000002 .167 .022000002 C .11800001 .022000002 .077 .057000005 .077 .107 C .077 .16200002 .11900001 .24500002 .284 .25100003 Z "/>
</symbol>
<use xlink:href="#font_0_8" transform="matrix(14.943899,0,0,-14.943899,42.517644,69.790378)"/>
<path transform="matrix(1,0,0,-1,89.877,19.077988)" stroke-width=".79701" stroke-linecap="butt" stroke-miterlimit="10" stroke-linejoin="miter" fill="none" stroke="#000000" d="M 10.18822 -16.36774 L 58.92732 -94.66934 "/>
<path transform="matrix(.52843,.84895,.84895,-.52843,148.80429,113.74733)" d="M 1.0361 0 C -.25902 .25902 -1.55415 .77707 -3.1083 1.68365 C -1.55415 .51805 -1.55415 -.51805 -3.1083 -1.68365 C -1.55415 -.77707 -.25902 -.25902 1.0361 0 Z "/>
<path transform="matrix(.52843,.84895,.84895,-.52843,148.80429,113.74733)" stroke-width=".79701" stroke-linecap="butt" stroke-linejoin="round" fill="none" stroke="#000000" d="M 1.0361 0 C -.25902 .25902 -1.55415 .77707 -3.1083 1.68365 C -1.55415 .51805 -1.55415 -.51805 -3.1083 -1.68365 C -1.55415 -.77707 -.25902 -.25902 1.0361 0 Z "/>
<symbol id="font_0_9">
<path d="M .14400001 .388 L .14400001 .705 L 0 .694 L 0 .663 C .07000001 .663 .07800001 .656 .07800001 .607 L .07800001 .011000001 L .103000018 .011000001 C .104 .012000001 .112 .026 .13900002 .07300001 C .15400002 .05 .19600001 0 .27 0 C .38900004 0 .49300004 .098000008 .49300004 .22700002 C .49300004 .35400004 .395 .45300005 .28100003 .45300005 C .20300001 .45300005 .16000001 .40600003 .14400001 .388 M .14700002 .12500002 L .14700002 .33100004 C .14700002 .35000003 .14700002 .351 .158 .367 C .19700001 .42300005 .252 .43100003 .27600003 .43100003 C .321 .43100003 .35700003 .40500004 .381 .367 C .40700004 .32600004 .41000004 .26900003 .41000004 .22800002 C .41000004 .19100002 .40800003 .13100001 .379 .086 C .358 .055000005 .32000003 .022000002 .266 .022000002 C .22100002 .022000002 .18500002 .046 .16100002 .083000008 C .14700002 .104 .14700002 .107 .14700002 .12500002 Z "/>
</symbol>
<use xlink:href="#font_0_9" transform="matrix(14.943899,0,0,-14.943899,130.81043,69.790378)"/>
<path transform="matrix(1,0,0,-1,89.877,19.077988)" stroke-width=".79701" stroke-linecap="butt" stroke-miterlimit="10" stroke-linejoin="miter" fill="none" stroke="#000000" d="M -53.02649 -122.50183 C -17.20973 -143.1806 17.20973 -143.1806 51.7841 -123.21912 "/>
<path transform="matrix(.86601,-.49998,-.49998,-.86601,141.66109,142.29712)" d="M 1.0361 0 C -.25902 .25902 -1.55415 .77707 -3.1083 1.68365 C -1.55415 .51805 -1.55415 -.51805 -3.1083 -1.68365 C -1.55415 -.77707 -.25902 -.25902 1.0361 0 Z "/>
<path transform="matrix(.86601,-.49998,-.49998,-.86601,141.66109,142.29712)" stroke-width=".79701" stroke-linecap="butt" stroke-linejoin="round" fill="none" stroke="#000000" d="M 1.0361 0 C -.25902 .25902 -1.55415 .77707 -3.1083 1.68365 C -1.55415 .51805 -1.55415 -.51805 -3.1083 -1.68365 C -1.55415 -.77707 -.25902 -.25902 1.0361 0 Z "/>
<symbol id="font_0_1">
<path d="M .117000009 .194 C .117000009 .25800003 .093 .29900003 .05300001 .29900003 C .018 .29900003 0 .272 0 .246 C 0 .22 .017000005 .193 .05300001 .193 C .069 .193 .08100001 .199 .091 .207 L .093 .209 C .094000007 .209 .095000009 .208 .095000009 .194 C .095000009 .13 .06700001 .069 .023000002 .022 C .017000005 .016000003 .016000003 .015000001 .016000003 .0109999929 C .016000003 .003999993 .021000006 0 .026 0 C .038000004 0 .117000009 .078999999 .117000009 .194 Z "/>
</symbol>
<use xlink:href="#font_0_8" transform="matrix(14.943899,0,0,-14.943899,80.54165,173.20737)"/>
<use xlink:href="#font_0_1" transform="matrix(14.943899,0,0,-14.943899,88.67113,175.92716)"/>
<use xlink:href="#font_0_9" transform="matrix(14.943899,0,0,-14.943899,91.95877,173.20737)"/>
<path transform="matrix(1,0,0,-1,89.877,19.077988)" stroke-width=".79701" stroke-linecap="butt" stroke-miterlimit="10" stroke-linejoin="miter" fill="none" stroke="#000000" d="M 50.38216 -112.63809 L -48.94756 -112.6375 "/>
<path transform="matrix(-1,-0,0,1,40.92944,131.71549)" d="M 1.0361 0 C -.25902 .25902 -1.55415 .77707 -3.1083 1.68365 C -1.55415 .51805 -1.55415 -.51805 -3.1083 -1.68365 C -1.55415 -.77707 -.25902 -.25902 1.0361 0 Z "/>
<path transform="matrix(-1,-0,0,1,40.92944,131.71549)" stroke-width=".79701" stroke-linecap="butt" stroke-linejoin="round" fill="none" stroke="#000000" d="M 1.0361 0 C -.25902 .25902 -1.55415 .77707 -3.1083 1.68365 C -1.55415 .51805 -1.55415 -.51805 -3.1083 -1.68365 C -1.55415 -.77707 -.25902 -.25902 1.0361 0 Z "/>
<use xlink:href="#font_0_8" transform="matrix(14.943899,0,0,-14.943899,80.54165,123.39438)"/>
<use xlink:href="#font_0_1" transform="matrix(14.943899,0,0,-14.943899,88.67113,126.11417)"/>
<use xlink:href="#font_0_9" transform="matrix(14.943899,0,0,-14.943899,91.95877,123.39438)"/>
<path transform="matrix(1,0,0,-1,89.877,19.077988)" stroke-width=".79701" stroke-linecap="butt" stroke-miterlimit="10" stroke-linejoin="miter" fill="none" stroke="#000000" d="M 283.53633 -16.37334 L 234.82366 -94.66919 "/>
<path transform="matrix(-.52824,.84906,.84906,.52824,324.70066,113.747158)" d="M 1.0361 0 C -.25902 .25902 -1.55415 .77707 -3.1083 1.68365 C -1.55415 .51805 -1.55415 -.51805 -3.1083 -1.68365 C -1.55415 -.77707 -.25902 -.25902 1.0361 0 Z "/>
<path transform="matrix(-.52824,.84906,.84906,.52824,324.70066,113.747158)" stroke-width=".79701" stroke-linecap="butt" stroke-linejoin="round" fill="none" stroke="#000000" d="M 1.0361 0 C -.25902 .25902 -1.55415 .77707 -3.1083 1.68365 C -1.55415 .51805 -1.55415 -.51805 -3.1083 -1.68365 C -1.55415 -.77707 -.25902 -.25902 1.0361 0 Z "/>
<use xlink:href="#font_0_8" transform="matrix(14.943899,0,0,-14.943899,354.88066,87.38437)"/>
<path transform="matrix(1,0,0,-1,89.877,19.077988)" stroke-width=".79701" stroke-linecap="butt" stroke-miterlimit="10" stroke-linejoin="miter" fill="none" stroke="#000000" d="M 303.9125 -16.36244 L 352.6784 -94.66951 "/>
<path transform="matrix(.52861,.84883,.84883,-.52861,442.55537,113.7475)" d="M 1.0361 0 C -.25902 .25902 -1.55415 .77707 -3.1083 1.68365 C -1.55415 .51805 -1.55415 -.51805 -3.1083 -1.68365 C -1.55415 -.77707 -.25902 -.25902 1.0361 0 Z "/>
<path transform="matrix(.52861,.84883,.84883,-.52861,442.55537,113.7475)" stroke-width=".79701" stroke-linecap="butt" stroke-linejoin="round" fill="none" stroke="#000000" d="M 1.0361 0 C -.25902 .25902 -1.55415 .77707 -3.1083 1.68365 C -1.55415 .51805 -1.55415 -.51805 -3.1083 -1.68365 C -1.55415 -.77707 -.25902 -.25902 1.0361 0 Z "/>
<use xlink:href="#font_0_9" transform="matrix(14.943899,0,0,-14.943899,405.08543,91.32237)"/>
<path transform="matrix(1,0,0,-1,89.877,19.077988)" stroke-width=".79701" stroke-linecap="butt" stroke-miterlimit="10" stroke-linejoin="miter" fill="none" stroke="#000000" d="M 224.29422 -92.91876 C 225.65648 -54.22504 242.52082 -27.25394 275.4448 -9.75984 "/>
<path transform="matrix(.88306,-.46921,-.46921,-.88306,365.32179,28.837828)" d="M 1.0361 0 C -.25902 .25902 -1.55415 .77707 -3.1083 1.68365 C -1.55415 .51805 -1.55415 -.51805 -3.1083 -1.68365 C -1.55415 -.77707 -.25902 -.25902 1.0361 0 Z "/>
<path transform="matrix(.88306,-.46921,-.46921,-.88306,365.32179,28.837828)" stroke-width=".79701" stroke-linecap="butt" stroke-linejoin="round" fill="none" stroke="#000000" d="M 1.0361 0 C -.25902 .25902 -1.55415 .77707 -3.1083 1.68365 C -1.55415 .51805 -1.55415 -.51805 -3.1083 -1.68365 C -1.55415 -.77707 -.25902 -.25902 1.0361 0 Z "/>
<use xlink:href="#font_0_8" transform="matrix(14.943899,0,0,-14.943899,315.64366,56.96837)"/>
<path transform="matrix(1,0,0,-1,89.877,19.077988)" stroke-width=".79701" stroke-linecap="butt" stroke-miterlimit="10" stroke-linejoin="miter" fill="none" stroke="#000000" d="M 240.72597 -122.50002 C 276.54124 -143.18007 310.96189 -143.18108 345.5366 -123.22147 "/>
<path transform="matrix(.86603,-.49994,-.49994,-.86603,435.41358,142.29947)" d="M 1.0361 0 C -.25902 .25902 -1.55415 .77707 -3.1083 1.68365 C -1.55415 .51805 -1.55415 -.51805 -3.1083 -1.68365 C -1.55415 -.77707 -.25902 -.25902 1.0361 0 Z "/>
<path transform="matrix(.86603,-.49994,-.49994,-.86603,435.41358,142.29947)" stroke-width=".79701" stroke-linecap="butt" stroke-linejoin="round" fill="none" stroke="#000000" d="M 1.0361 0 C -.25902 .25902 -1.55415 .77707 -3.1083 1.68365 C -1.55415 .51805 -1.55415 -.51805 -3.1083 -1.68365 C -1.55415 -.77707 -.25902 -.25902 1.0361 0 Z "/>
<use xlink:href="#font_0_9" transform="matrix(14.943899,0,0,-14.943899,379.89244,173.20737)"/>
<path transform="matrix(1,0,0,-1,89.877,19.077988)" stroke-width=".79701" stroke-linecap="butt" stroke-miterlimit="10" stroke-linejoin="miter" fill="none" stroke="#000000" d="M 344.13356 -112.63809 L 244.80367 -112.6375 "/>
<path transform="matrix(-1,-0,0,1,334.68067,131.71549)" d="M 1.0361 0 C -.25902 .25902 -1.55415 .77707 -3.1083 1.68365 C -1.55415 .51805 -1.55415 -.51805 -3.1083 -1.68365 C -1.55415 -.77707 -.25902 -.25902 1.0361 0 Z "/>
<path transform="matrix(-1,-0,0,1,334.68067,131.71549)" stroke-width=".79701" stroke-linecap="butt" stroke-linejoin="round" fill="none" stroke="#000000" d="M 1.0361 0 C -.25902 .25902 -1.55415 .77707 -3.1083 1.68365 C -1.55415 .51805 -1.55415 -.51805 -3.1083 -1.68365 C -1.55415 -.77707 -.25902 -.25902 1.0361 0 Z "/>
<use xlink:href="#font_0_8" transform="matrix(14.943899,0,0,-14.943899,380.51664,126.30037)"/>
<path transform="matrix(1,0,0,-1,89.877,19.077988)" stroke-width=".79701" stroke-linecap="butt" stroke-miterlimit="10" stroke-linejoin="miter" fill="none" stroke="#000000" d="M 363.20985 -92.91876 C 361.82859 -54.2202 344.93058 -27.22784 311.99324 -9.74718 "/>
<path transform="matrix(-.88329,-.46878,-.46878,.88329,401.87025,28.825188)" d="M 1.0361 0 C -.25902 .25902 -1.55415 .77707 -3.1083 1.68365 C -1.55415 .51805 -1.55415 -.51805 -3.1083 -1.68365 C -1.55415 -.77707 -.25902 -.25902 1.0361 0 Z "/>
<path transform="matrix(-.88329,-.46878,-.46878,.88329,401.87025,28.825188)" stroke-width=".79701" stroke-linecap="butt" stroke-linejoin="round" fill="none" stroke="#000000" d="M 1.0361 0 C -.25902 .25902 -1.55415 .77707 -3.1083 1.68365 C -1.55415 .51805 -1.55415 -.51805 -3.1083 -1.68365 C -1.55415 -.77707 -.25902 -.25902 1.0361 0 Z "/>
<use xlink:href="#font_0_9" transform="matrix(14.943899,0,0,-14.943899,445.14646,56.955369)"/>
</g>
</svg>
