<?xml version="1.0" encoding="UTF-8" standalone="no"?>
<!DOCTYPE svg PUBLIC "-//W3C//DTD SVG 1.1//EN" "http://www.w3.org/Graphics/SVG/1.1/DTD/svg11.dtd">
<svg xmlns="http://www.w3.org/2000/svg" xmlns:xlink="http://www.w3.org/1999/xlink" version="1.1" width="374.948pt" height="207.65pt" viewBox="0 0 374.948 207.65">
<g enable-background="new">
<path transform="matrix(1,0,0,-1,89.877,19.078995)" stroke-width=".79701" stroke-linecap="butt" stroke-miterlimit="10" stroke-linejoin="miter" fill="none" stroke="#000000" d="M 18.68019 0 C 18.68019 10.31691 10.31691 18.68019 0 18.68019 C -10.31691 18.68019 -18.68019 10.31691 -18.68019 0 C -18.68019 -10.31691 -10.31691 -18.68019 0 -18.68019 C 10.31691 -18.68019 18.68019 -10.31691 18.68019 0 Z M 0 0 "/>
<symbol id="font_0_1">
<path d="M .321 .067 C .33200003 .026 .367 0 .41 0 C .44500003 0 .468 .023000002 .484 .055000005 C .50100007 .091000009 .51400008 .15200001 .51400008 .15400002 C .51400008 .16400002 .50500008 .16400002 .50200006 .16400002 C .492 .16400002 .49100004 .16000001 .488 .14600002 C .474 .09 .455 .022000002 .41300003 .022000002 C .39200003 .022000002 .382 .035 .382 .068 C .382 .09 .394 .13700001 .402 .17200002 L .43 .28000004 C .433 .29500003 .44300003 .33300004 .447 .34800003 C .45200003 .37100003 .462 .40900005 .462 .41500003 C .462 .43300004 .448 .44200004 .433 .44200004 C .428 .44200004 .402 .441 .394 .40700004 C .375 .33400003 .331 .15900001 .319 .106000009 C .318 .102000009 .278 .022000002 .20500002 .022000002 C .15300001 .022000002 .143 .067 .143 .104 C .143 .16000001 .171 .23900002 .19700001 .30800004 C .209 .33800004 .21400002 .35200004 .21400002 .37100003 C .21400002 .41600005 .18200001 .45300005 .13200002 .45300005 C .037 .45300005 0 .30800004 0 .29900003 C 0 .28900004 .01 .28900004 .012 .28900004 C .022000002 .28900004 .023 .291 .028000003 .307 C .053000004 .39400003 .091000009 .43100003 .12900001 .43100003 C .13800001 .43100003 .15400002 .43000005 .15400002 .39800004 C .15400002 .374 .143 .34500004 .13700001 .33 C .10000001 .23100002 .079 .16900002 .079 .120000008 C .079 .025000003 .148 0 .202 0 C .268 0 .304 .045 .321 .067 Z "/>
</symbol>
<use xlink:href="#font_0_1" transform="matrix(14.943899,0,0,-14.943899,82.68137,21.33937)"/>
<symbol id="font_1_1">
<path d="M .46400006 .33900003 C .46400006 .44900004 .45100004 .528 .40500004 .598 C .374 .644 .31200005 .684 .23200001 .684 C 0 .684 0 .41100005 0 .33900003 C 0 .26700003 0 0 .23200001 0 C .46400006 0 .46400006 .26700003 .46400006 .33900003 M .23200001 .028 C .186 .028 .125 .055 .105000007 .13700001 C .091000009 .19600001 .091000009 .27800004 .091000009 .35200004 C .091000009 .42500005 .091000009 .50100007 .106000009 .556 C .127 .635 .19100002 .656 .23200001 .656 C .286 .656 .338 .623 .356 .565 C .37200005 .51100006 .37300004 .43900005 .37300004 .35200004 C .37300004 .27800004 .37300004 .20400001 .36 .141 C .34000004 .050000006 .272 .028 .23200001 .028 Z "/>
</symbol>
<use xlink:href="#font_1_1" transform="matrix(10.4607,0,0,-10.4607,91.346469,23.626694)"/>
<path transform="matrix(1,0,0,-1,89.877,19.078995)" stroke-width=".79701" stroke-linecap="butt" stroke-miterlimit="10" stroke-linejoin="miter" fill="none" stroke="#000000" d="M -38.58308 0 L -20.71489 0 "/>
<path transform="matrix(1,0,0,-1,69.16211,19.078995)" d="M 1.0361 0 C -.25902 .25902 -1.55415 .77707 -3.1083 1.68365 C -1.55415 .51805 -1.55415 -.51805 -3.1083 -1.68365 C -1.55415 -.77707 -.25902 -.25902 1.0361 0 Z "/>
<path transform="matrix(1,0,0,-1,69.16211,19.078995)" stroke-width=".79701" stroke-linecap="butt" stroke-linejoin="round" fill="none" stroke="#000000" d="M 1.0361 0 C -.25902 .25902 -1.55415 .77707 -3.1083 1.68365 C -1.55415 .51805 -1.55415 -.51805 -3.1083 -1.68365 C -1.55415 -.77707 -.25902 -.25902 1.0361 0 Z "/>
<path transform="matrix(1,0,0,-1,89.877,19.078995)" stroke-width="2.19182" stroke-linecap="butt" stroke-miterlimit="10" stroke-linejoin="miter" fill="none" stroke="#000000" d="M -51.42181 -112.62227 C -51.42181 -102.30536 -59.7851 -93.94206 -70.10202 -93.94206 C -80.41893 -93.94206 -88.78223 -102.30536 -88.78223 -112.62227 C -88.78223 -122.93918 -80.41893 -131.30248 -70.10202 -131.30248 C -59.7851 -131.30248 -51.42181 -122.93918 -51.42181 -112.62227 Z M -70.10202 -112.62227 "/>
<path transform="matrix(1,0,0,-1,89.877,19.078995)" stroke-width=".59776" stroke-linecap="butt" stroke-miterlimit="10" stroke-linejoin="miter" fill="none" stroke="#ffffff" d="M -51.42181 -112.62227 C -51.42181 -102.30536 -59.7851 -93.94206 -70.10202 -93.94206 C -80.41893 -93.94206 -88.78223 -102.30536 -88.78223 -112.62227 C -88.78223 -122.93918 -80.41893 -131.30248 -70.10202 -131.30248 C -59.7851 -131.30248 -51.42181 -122.93918 -51.42181 -112.62227 Z M -70.10202 -112.62227 "/>
<use xlink:href="#font_0_1" transform="matrix(14.943899,0,0,-14.943899,12.57937,133.96038)"/>
<symbol id="font_1_2">
<path d="M .22600001 .63600006 C .22600001 .66300007 .224 .66400006 .19600001 .66400006 C .132 .601 .041 .6 0 .6 L 0 .564 C .023999997 .564 .09000001 .564 .14500001 .592 L .14500001 .082 C .14500001 .049000004 .14500001 .036000004 .04500001 .036000004 L .0069999995 .036000004 L .0069999995 0 C .024999999 .001 .148 .004 .185 .004 C .21600002 .004 .34200005 .001 .36400003 0 L .36400003 .036000004 L .32600004 .036000004 C .22600001 .036000004 .22600001 .049000004 .22600001 .082 L .22600001 .63600006 Z "/>
</symbol>
<use xlink:href="#font_1_2" transform="matrix(10.4607,0,0,-10.4607,21.842215,136.03699)"/>
<path transform="matrix(1,0,0,-1,89.877,19.078995)" stroke-width="2.19182" stroke-linecap="butt" stroke-miterlimit="10" stroke-linejoin="miter" fill="none" stroke="#000000" d="M 88.78223 -112.62227 C 88.78223 -102.30536 80.41893 -93.94206 70.10202 -93.94206 C 59.7851 -93.94206 51.42181 -102.30536 51.42181 -112.62227 C 51.42181 -122.93918 59.7851 -131.30248 70.10202 -131.30248 C 80.41893 -131.30248 88.78223 -122.93918 88.78223 -112.62227 Z M 70.10202 -112.62227 "/>
<path transform="matrix(1,0,0,-1,89.877,19.078995)" stroke-width=".59776" stroke-linecap="butt" stroke-miterlimit="10" stroke-linejoin="miter" fill="none" stroke="#ffffff" d="M 88.78223 -112.62227 C 88.78223 -102.30536 80.41893 -93.94206 70.10202 -93.94206 C 59.7851 -93.94206 51.42181 -102.30536 51.42181 -112.62227 C 51.42181 -122.93918 59.7851 -131.30248 70.10202 -131.30248 C 80.41893 -131.30248 88.78223 -122.93918 88.78223 -112.62227 Z M 70.10202 -112.62227 "/>
<use xlink:href="#font_0_1" transform="matrix(14.943899,0,0,-14.943899,152.78238,133.96038)"/>
<symbol id="font_1_3">
<path d="M .442 .18200001 L .40800003 .18200001 C .40500004 .16000001 .39500005 .101 .38200004 .091000009 C .374 .085 .29700003 .085 .28300003 .085 L .099 .085 C .20400003 .178 .23900002 .20600002 .29900003 .25300003 C .37300004 .312 .442 .374 .442 .469 C .442 .59000006 .33600004 .66400006 .20800004 .66400006 C .084 .66400006 0 .577 0 .485 C 0 .43400003 .043000007 .42900003 .053000004 .42900003 C .077 .42900003 .10600001 .446 .10600001 .48200003 C .10600001 .5 .099 .535 .047000007 .535 C .078 .606 .146 .628 .19300002 .628 C .293 .628 .34500004 .55 .34500004 .469 C .34500004 .38200004 .28300003 .31300003 .25100003 .277 L .010000005 .039 C 0 .030000002 0 .028 0 0 L .41200004 0 L .442 .18200001 Z "/>
</symbol>
<use xlink:href="#font_1_3" transform="matrix(10.4607,0,0,-10.4607,161.56253,136.03699)"/>
<symbol id="font_2_3">
<path d="M 0 .683 L 0 .652 L .024000004 .652 C .10100001 .652 .103000018 .64100006 .103000018 .605 L .103000018 .078 C .103000018 .042000005 .10100001 .031000002 .024000004 .031000002 L 0 .031000002 L 0 0 L .36600004 0 C .534 0 .672 .148 .672 .33600004 C .672 .526 .537 .683 .36600004 .683 L 0 .683 M .238 .031000002 C .19100002 .031000002 .18900001 .038000004 .18900001 .071 L .18900001 .61200007 C .18900001 .64500007 .19100002 .652 .238 .652 L .33800004 .652 C .40000005 .652 .469 .63000008 .52 .559 C .563 .5 .572 .41400004 .572 .33600004 C .572 .22500001 .553 .165 .517 .116000007 C .497 .089 .44000004 .031000002 .33900003 .031000002 L .238 .031000002 Z "/>
</symbol>
<symbol id="font_2_4">
<path d="M .549 .68 L 0 .68 L 0 .64900007 L .024000004 .64900007 C .101 .64900007 .10300001 .638 .10300001 .60200008 L .10300001 .078 C .10300001 .042000005 .101 .031000002 .024000004 .031000002 L 0 .031000002 L 0 0 C .035000005 .003 .11300001 .003 .15200001 .003 C .19300002 .003 .284 .003 .32000003 0 L .32000003 .031000002 L .28700004 .031000002 C .192 .031000002 .192 .044000005 .192 .079 L .192 .32500003 L .27800004 .32500003 C .374 .32500003 .38400004 .293 .38400004 .208 L .40900005 .208 L .40900005 .47300003 L .38400004 .47300003 C .38400004 .38900004 .374 .356 .27800004 .356 L .192 .356 L .192 .609 C .192 .642 .194 .64900007 .24100003 .64900007 L .36100004 .64900007 C .51100006 .64900007 .536 .59300008 .55200007 .455 L .577 .455 L .549 .68 Z "/>
</symbol>
<symbol id="font_2_2">
<path d="M .36600004 .69600006 C .361 .70900008 .35900004 .716 .34300003 .716 C .32700003 .716 .324 .71000006 .319 .69600006 L .112 .098000008 C .094 .047000003 .054 .032 0 .031000002 L 0 0 C .023000002 .001 .066 .003 .102 .003 C .133 .003 .185 .001 .21700001 0 L .21700001 .031000002 C .16700001 .031000002 .142 .056 .142 .082 C .142 .085 .143 .095000009 .14400001 .097 L .19000001 .22800002 L .437 .22800002 L .49 .075 C .491 .071 .49300004 .065000008 .49300004 .061000006 C .49300004 .031000002 .437 .031000002 .41000004 .031000002 L .41000004 0 C .446 .003 .51600006 .003 .554 .003 C .597 .003 .643 .002 .685 0 L .685 .031000002 L .66700008 .031000002 C .60700008 .031000002 .593 .038000004 .582 .071 L .36600004 .69600006 M .31300003 .58400008 L .42600004 .259 L .201 .259 L .31300003 .58400008 Z "/>
</symbol>
<use xlink:href="#font_2_3" transform="matrix(14.943899,0,0,-14.943899,75.04103,202.66899)"/>
<use xlink:href="#font_2_4" transform="matrix(14.943899,0,0,-14.943899,86.42829,202.66899)"/>
<use xlink:href="#font_2_2" transform="matrix(14.943899,0,0,-14.943899,94.51294,202.66899)"/>
<path transform="matrix(1,0,0,-1,89.877,19.078995)" stroke-width=".79701" stroke-linecap="butt" stroke-miterlimit="10" stroke-linejoin="miter" fill="none" stroke="#000000" d="M 227.31937 0 C 227.31937 10.31691 218.95609 18.68019 208.63916 18.68019 C 198.32225 18.68019 189.95896 10.31691 189.95896 0 C 189.95896 -10.31691 198.32225 -18.68019 208.63916 -18.68019 C 218.95609 -18.68019 227.31937 -10.31691 227.31937 0 Z M 208.63916 0 "/>
<symbol id="font_0_2">
<path d="M .439 .38300003 C .439 .43700005 .41300003 .45300005 .395 .45300005 C .37 .45300005 .34600003 .42700003 .34600003 .40500004 C .34600003 .39200003 .351 .38600005 .36200003 .37500004 C .38300003 .35500003 .396 .32900004 .396 .293 C .396 .25100003 .335 .022000002 .21800001 .022000002 C .16700001 .022000002 .14400001 .057000005 .14400001 .109000008 C .14400001 .16500002 .171 .23800002 .202 .321 C .209 .33800004 .21400002 .35200004 .21400002 .37100003 C .21400002 .41600005 .18200001 .45300005 .13200002 .45300005 C .038000004 .45300005 0 .30800004 0 .29900003 C 0 .28900004 .01 .28900004 .012 .28900004 C .022000002 .28900004 .023 .291 .028000003 .307 C .057000005 .40800003 .10000001 .43100003 .12900001 .43100003 C .13700001 .43100003 .15400002 .43100003 .15400002 .39900003 C .15400002 .374 .14400001 .34700004 .13700001 .32900004 C .09300001 .21300002 .080000009 .16700001 .080000009 .124000009 C .080000009 .016 .16800002 0 .21400002 0 C .382 0 .439 .33100004 .439 .38300003 Z "/>
</symbol>
<use xlink:href="#font_0_2" transform="matrix(14.943899,0,0,-14.943899,291.97337,21.33937)"/>
<use xlink:href="#font_1_1" transform="matrix(10.4607,0,0,-10.4607,299.32746,23.626694)"/>
<path transform="matrix(1,0,0,-1,89.877,19.078995)" stroke-width=".79701" stroke-linecap="butt" stroke-miterlimit="10" stroke-linejoin="miter" fill="none" stroke="#000000" d="M 170.01363 -57.33116 C 170.01363 -47.01425 161.65033 -38.65096 151.33342 -38.65096 C 141.01651 -38.65096 132.65322 -47.01425 132.65322 -57.33116 C 132.65322 -67.64809 141.01651 -76.01137 151.33342 -76.01137 C 161.65033 -76.01137 170.01363 -67.64809 170.01363 -57.33116 Z M 151.33342 -57.33116 "/>
<use xlink:href="#font_0_2" transform="matrix(14.943899,0,0,-14.943899,234.66838,78.670368)"/>
<use xlink:href="#font_1_2" transform="matrix(10.4607,0,0,-10.4607,242.61872,80.746997)"/>
<path transform="matrix(1,0,0,-1,89.877,19.078995)" stroke-width=".79701" stroke-linecap="butt" stroke-miterlimit="10" stroke-linejoin="miter" fill="none" stroke="#000000" d="M 284.67604 -57.33116 C 284.67604 -47.01425 276.31275 -38.65096 265.99583 -38.65096 C 255.67891 -38.65096 247.31562 -47.01425 247.31562 -57.33116 C 247.31562 -67.64809 255.67891 -76.01137 265.99583 -76.01137 C 276.31275 -76.01137 284.67604 -67.64809 284.67604 -57.33116 Z M 265.99583 -57.33116 "/>
<use xlink:href="#font_0_2" transform="matrix(14.943899,0,0,-14.943899,349.32939,78.670368)"/>
<use xlink:href="#font_1_3" transform="matrix(10.4607,0,0,-10.4607,356.79856,80.746997)"/>
<path transform="matrix(1,0,0,-1,89.877,19.078995)" stroke-width=".79701" stroke-linecap="butt" stroke-miterlimit="10" stroke-linejoin="miter" fill="none" stroke="#000000" d="M 227.37728 -114.66936 C 227.37728 -104.35243 219.01398 -95.98915 208.69707 -95.98915 C 198.38016 -95.98915 190.01686 -104.35243 190.01686 -114.66936 C 190.01686 -124.98627 198.38016 -133.34957 208.69707 -133.34957 C 219.01398 -133.34957 227.37728 -124.98627 227.37728 -114.66936 Z M 208.69707 -114.66936 "/>
<use xlink:href="#font_0_2" transform="matrix(14.943899,0,0,-14.943899,292.03138,136.00737)"/>
<symbol id="font_1_4">
<path d="M .219 .35400004 C .29700003 .35400004 .35300002 .3 .35300002 .193 C .35300002 .069000009 .28100003 .032 .223 .032 C .18300002 .032 .095 .043000007 .053000008 .102000009 C .10000001 .10400001 .111 .13700001 .111 .158 C .111 .19 .087 .213 .056000007 .213 C .028 .213 0 .19600001 0 .155 C 0 .061000006 .104 0 .22500001 0 C .36400003 0 .46 .09300001 .46 .193 C .46 .27100004 .39600004 .34900005 .286 .37200005 C .39100004 .41000004 .42900003 .48500005 .42900003 .546 C .42900003 .625 .33800004 .684 .22700002 .684 C .116 .684 .031 .63 .031 .55 C .031 .51600006 .053000008 .49700005 .083000008 .49700005 C .11400001 .49700005 .134 .52 .134 .548 C .134 .577 .11400001 .598 .083000008 .6 C .118 .644 .187 .65500006 .22400002 .65500006 C .26900003 .65500006 .33200003 .633 .33200003 .546 C .33200003 .504 .31800003 .45800004 .29200004 .42700003 C .25900004 .38900004 .23100002 .38700003 .18100001 .38400004 C .156 .38200004 .154 .38200004 .149 .38100005 C .147 .38100005 .139 .37900005 .139 .36800004 C .139 .35400004 .148 .35400004 .165 .35400004 L .219 .35400004 Z "/>
</symbol>
<use xlink:href="#font_1_4" transform="matrix(10.4607,0,0,-10.4607,299.4064,138.2947)"/>
<symbol id="font_2_5">
<path d="M .19200002 .316 L .36100004 .316 C .48100005 .316 .589 .397 .589 .497 C .589 .595 .49000005 .683 .35300002 .683 L 0 .683 L 0 .652 L .024000004 .652 C .10100001 .652 .103000018 .64100006 .103000018 .605 L .103000018 .078 C .103000018 .042000005 .10100001 .031000002 .024000004 .031000002 L 0 .031000002 L 0 0 C .035 .003 .10900001 .003 .14700002 .003 C .18500002 .003 .26000003 .003 .29500003 0 L .29500003 .031000002 L .27100004 .031000002 C .19400002 .031000002 .19200002 .042000005 .19200002 .078 L .19200002 .316 M .18900001 .342 L .18900001 .61200007 C .18900001 .64500007 .19100002 .652 .238 .652 L .32700003 .652 C .48600004 .652 .48600004 .546 .48600004 .497 C .48600004 .45000003 .48600004 .342 .32700003 .342 L .18900001 .342 Z "/>
</symbol>
<symbol id="font_2_a">
<path d="M .44300003 .22500003 C .44300003 .35300002 .34300003 .45900003 .222 .45900003 C .097 .45900003 0 .35000003 0 .22500003 C 0 .096 .104 0 .22100002 0 C .342 0 .44300003 .098000008 .44300003 .22500003 M .222 .025000003 C .17900002 .025000003 .135 .046 .10800001 .092 C .083000008 .136 .083000008 .19700001 .083000008 .23300003 C .083000008 .272 .083000008 .32600004 .10700001 .37000004 C .134 .41600005 .18100001 .43700005 .22100002 .43700005 C .26500003 .43700005 .30800004 .41500003 .33400003 .37200005 C .36 .32900004 .36 .27100004 .36 .23300003 C .36 .19700001 .36 .143 .33800004 .09900001 C .316 .054 .272 .025000003 .222 .025000003 Z "/>
</symbol>
<symbol id="font_2_e">
<path d="M .601 .34700004 C .619 .397 .65000006 .41000004 .685 .411 L .685 .44200004 C .66300007 .44000004 .634 .43900005 .61200007 .43900005 C .583 .43900005 .53800007 .441 .519 .44200004 L .519 .411 C .555 .41000004 .577 .39200003 .577 .36300005 C .577 .35700003 .577 .35500003 .572 .34200005 L .481 .086 L .382 .365 C .37800003 .37700004 .377 .37900005 .377 .38400004 C .377 .411 .416 .411 .43600003 .411 L .43600003 .44200004 C .407 .441 .356 .43900005 .33200003 .43900005 C .30200003 .43900005 .273 .44000004 .243 .44200004 L .243 .411 C .28 .411 .296 .40900005 .306 .39600004 C .31100003 .39000003 .322 .36 .329 .34100003 L .243 .09900001 L .148 .36600004 C .143 .37800003 .143 .38000003 .143 .38400004 C .143 .411 .182 .411 .202 .411 L .202 .44200004 C .172 .441 .116000007 .43900005 .09300001 .43900005 C .08900001 .43900005 .036 .44000004 0 .44200004 L 0 .411 C .050000006 .411 .062000008 .40800003 .07400001 .37600003 L .2 .022000002 C .205 .008000001 .208 0 .221 0 C .234 0 .236 .0060000007 .241 .020000002 L .342 .30300004 L .444 .019000002 C .448 .008000001 .451 0 .46400003 0 C .47700004 0 .48000003 .009000001 .48400004 .019000002 L .601 .34700004 Z "/>
</symbol>
<symbol id="font_2_9">
<path d="M .08400001 .263 C .09 .41200004 .17400001 .43700005 .20800002 .43700005 C .31100003 .43700005 .321 .30200003 .321 .263 L .08400001 .263 M .083000008 .24200002 L .36200003 .24200002 C .38400004 .24200002 .38700003 .24200002 .38700003 .263 C .38700003 .36200003 .33300004 .45900003 .20800002 .45900003 C .09200001 .45900003 0 .35600005 0 .23100002 C 0 .097 .105000007 0 .22000002 0 C .342 0 .38700003 .111 .38700003 .13000001 C .38700003 .14000002 .379 .14200002 .374 .14200002 C .365 .14200002 .36300005 .136 .36100004 .128 C .326 .025000003 .236 .025000003 .22600001 .025000003 C .17600002 .025000003 .136 .055000005 .113000009 .092 C .083000008 .14000002 .083000008 .20600002 .083000008 .24200002 Z "/>
</symbol>
<symbol id="font_2_b">
<path d="M .13900002 .33200003 L .13900002 .44200004 L 0 .43100003 L 0 .4 C .07000001 .4 .07800001 .393 .07800001 .344 L .07800001 .076000008 C .07800001 .031000002 .067 .031000002 0 .031000002 L 0 0 C .039 .001 .08600001 .003 .11400001 .003 C .15400002 .003 .20100002 .003 .24100003 0 L .24100003 .031000002 L .22000002 .031000002 C .14600002 .031000002 .14400001 .042000005 .14400001 .078 L .14400001 .23200001 C .14400001 .33100004 .18600002 .42000003 .26200003 .42000003 C .26900003 .42000003 .27100004 .42000003 .27300004 .41900004 C .27 .418 .25000004 .40600003 .25000004 .38000003 C .25000004 .35200004 .27100004 .337 .293 .337 C .31100003 .337 .33600004 .349 .33600004 .381 C .33600004 .41300003 .305 .44200004 .26200003 .44200004 C .18900001 .44200004 .15300001 .37500004 .13900002 .33200003 Z "/>
</symbol>
<symbol id="font_2_c">
<path d="M .17500001 .20500002 C .197 .20100002 .279 .18500002 .279 .113000009 C .279 .062000004 .24400002 .022000002 .16600001 .022000002 C .082 .022000002 .046000005 .079 .027000003 .16400002 C .024000004 .17700002 .023000002 .18100001 .013000004 .18100001 C 0 .18100001 0 .17400001 0 .15600002 L 0 .024 C 0 .0070000009 0 0 .011000004 0 C .016000003 0 .017 .0010000002 .036000007 .020000002 C .038000004 .022000002 .038000004 .024 .056 .043 C .1 .0010000002 .14500001 0 .16600001 0 C .28100003 0 .32700003 .067 .32700003 .13900002 C .32700003 .19200002 .29700003 .22200002 .28500004 .23400001 C .25200004 .26600004 .213 .27400003 .171 .28200004 C .115 .293 .048 .30600003 .048 .36400003 C .048 .39900003 .07400001 .44000004 .16 .44000004 C .27 .44000004 .27500005 .35000003 .277 .31900005 C .27800004 .31000004 .28700004 .31000004 .28900004 .31000004 C .30200003 .31000004 .30200003 .31500004 .30200003 .33400003 L .30200003 .43500004 C .30200003 .45200003 .30200003 .45900003 .291 .45900003 C .286 .45900003 .284 .45900003 .27100004 .44700004 C .26800005 .44300003 .25800003 .43400003 .254 .43100003 C .21600002 .45900003 .17500001 .45900003 .16 .45900003 C .038000004 .45900003 0 .39200003 0 .33600004 C 0 .30100004 .016000003 .27300004 .043000007 .25100003 C .075 .22500003 .10300001 .21900001 .17500001 .20500002 Z "/>
</symbol>
<symbol id="font_2_d">
<path d="M .15400002 .411 L .29700003 .411 L .29700003 .44200004 L .15400002 .44200004 L .15400002 .626 L .12900001 .626 C .12799999 .544 .098000008 .43700005 0 .43300004 L 0 .411 L .085 .411 L .085 .135 C .085 .012000001 .178 0 .21400002 0 C .28500004 0 .31300003 .071 .31300003 .135 L .31300003 .19200002 L .28800003 .19200002 L .28800003 .13700001 C .28800003 .063 .25800003 .025000003 .22100002 .025000003 C .15400002 .025000003 .15400002 .116000007 .15400002 .13300002 L .15400002 .411 Z "/>
</symbol>
<use xlink:href="#font_2_5" transform="matrix(14.943899,0,0,-14.943899,270.04606,202.66899)"/>
<use xlink:href="#font_2_a" transform="matrix(14.943899,0,0,-14.943899,279.69984,202.83338)"/>
<use xlink:href="#font_2_e" transform="matrix(14.943899,0,0,-14.943899,286.60386,202.83338)"/>
<use xlink:href="#font_2_9" transform="matrix(14.943899,0,0,-14.943899,297.13935,202.83338)"/>
<use xlink:href="#font_2_b" transform="matrix(14.943899,0,0,-14.943899,303.7744,202.66899)"/>
<use xlink:href="#font_2_c" transform="matrix(14.943899,0,0,-14.943899,309.70716,202.83338)"/>
<use xlink:href="#font_2_9" transform="matrix(14.943899,0,0,-14.943899,315.52033,202.83338)"/>
<use xlink:href="#font_2_d" transform="matrix(14.943899,0,0,-14.943899,322.02095,202.83338)"/>
<path transform="matrix(1,0,0,-1,89.877,19.078995)" stroke-width=".3985" stroke-linecap="butt" stroke-miterlimit="10" stroke-linejoin="miter" fill="none" stroke="#000000" d=""/>
<path transform="matrix(1,0,0,-1,89.877,19.078995)" stroke-width=".79701" stroke-linecap="butt" stroke-miterlimit="10" stroke-linejoin="miter" fill="none" stroke="#000000" d="M -10.18791 -16.36806 L -58.92732 -94.66966 "/>
<path transform="matrix(-.52843,.84895,.84895,.52843,30.9497,113.74866)" d="M 1.0361 0 C -.25902 .25902 -1.55415 .77707 -3.1083 1.68365 C -1.55415 .51805 -1.55415 -.51805 -3.1083 -1.68365 C -1.55415 -.77707 -.25902 -.25902 1.0361 0 Z "/>
<path transform="matrix(-.52843,.84895,.84895,.52843,30.9497,113.74866)" stroke-width=".79701" stroke-linecap="butt" stroke-linejoin="round" fill="none" stroke="#000000" d="M 1.0361 0 C -.25902 .25902 -1.55415 .77707 -3.1083 1.68365 C -1.55415 .51805 -1.55415 -.51805 -3.1083 -1.68365 C -1.55415 -.77707 -.25902 -.25902 1.0361 0 Z "/>
<symbol id="font_2_6">
<path d="M .291 .087000008 C .29500003 .047000003 .32200004 .005000001 .36900003 .005000001 C .39000003 .005000001 .45100004 .019000002 .45100004 .1 L .45100004 .15600002 L .42600004 .15600002 L .42600004 .1 C .42600004 .042000005 .40100003 .036000004 .39000003 .036000004 C .35700003 .036000004 .35300002 .081 .35300002 .086 L .35300002 .286 C .35300002 .328 .35300002 .367 .31700004 .404 C .27800004 .44300003 .22800002 .45900003 .18 .45900003 C .098 .45900003 .029 .41200004 .029 .34600003 C .029 .316 .049000004 .29900003 .075 .29900003 C .10300001 .29900003 .121 .31900005 .121 .34500004 C .121 .35700003 .116000007 .39000003 .07 .39100004 C .09700001 .42600004 .146 .43700005 .178 .43700005 C .22700003 .43700005 .284 .39800004 .284 .30900003 L .284 .272 C .23300001 .26900003 .16300002 .26600004 .1 .23600002 C .024999999 .20200002 0 .15000002 0 .106000009 C 0 .025000003 .09700001 0 .16 0 C .22600001 0 .272 .040000004 .291 .087000008 M .284 .25100003 L .284 .15100001 C .284 .056 .21200001 .022000002 .167 .022000002 C .11800001 .022000002 .077 .057000005 .077 .107 C .077 .16200002 .11900001 .24500002 .284 .25100003 Z "/>
</symbol>
<use xlink:href="#font_2_6" transform="matrix(14.943899,0,0,-14.943899,42.517644,69.7914)"/>
<path transform="matrix(1,0,0,-1,89.877,19.078995)" stroke-width=".79701" stroke-linecap="butt" stroke-miterlimit="10" stroke-linejoin="miter" fill="none" stroke="#000000" d="M 10.18822 -16.36774 L 58.9276 -94.66934 "/>
<path transform="matrix(.52843,.84895,.84895,-.52843,148.80458,113.74834)" d="M 1.0361 0 C -.25902 .25902 -1.55415 .77707 -3.1083 1.68365 C -1.55415 .51805 -1.55415 -.51805 -3.1083 -1.68365 C -1.55415 -.77707 -.25902 -.25902 1.0361 0 Z "/>
<path transform="matrix(.52843,.84895,.84895,-.52843,148.80458,113.74834)" stroke-width=".79701" stroke-linecap="butt" stroke-linejoin="round" fill="none" stroke="#000000" d="M 1.0361 0 C -.25902 .25902 -1.55415 .77707 -3.1083 1.68365 C -1.55415 .51805 -1.55415 -.51805 -3.1083 -1.68365 C -1.55415 -.77707 -.25902 -.25902 1.0361 0 Z "/>
<symbol id="font_2_7">
<path d="M .14400001 .388 L .14400001 .705 L 0 .694 L 0 .663 C .07000001 .663 .07800001 .656 .07800001 .607 L .07800001 .011000001 L .103000018 .011000001 C .104 .012000001 .112 .026 .13900002 .07300001 C .15400002 .05 .19600001 0 .27 0 C .38900004 0 .49300004 .098000008 .49300004 .22700002 C .49300004 .35400004 .395 .45300005 .28100003 .45300005 C .20300001 .45300005 .16000001 .40600003 .14400001 .388 M .14700002 .12500002 L .14700002 .33100004 C .14700002 .35000003 .14700002 .351 .158 .367 C .19700001 .42300005 .252 .43100003 .27600003 .43100003 C .321 .43100003 .35700003 .40500004 .381 .367 C .40700004 .32600004 .41000004 .26900003 .41000004 .22800002 C .41000004 .19100002 .40800003 .13100001 .379 .086 C .358 .055000005 .32000003 .022000002 .266 .022000002 C .22100002 .022000002 .18500002 .046 .16100002 .083000008 C .14700002 .104 .14700002 .107 .14700002 .12500002 Z "/>
</symbol>
<use xlink:href="#font_2_7" transform="matrix(14.943899,0,0,-14.943899,130.81043,69.7914)"/>
<path transform="matrix(1,0,0,-1,89.877,19.078995)" stroke-width=".79701" stroke-linecap="butt" stroke-miterlimit="10" stroke-linejoin="miter" fill="none" stroke="#000000" d="M -53.02649 -122.50183 C -17.20973 -143.1806 17.20973 -143.1806 51.7841 -123.21912 "/>
<path transform="matrix(.86601,-.49998,-.49998,-.86601,141.66109,142.29813)" d="M 1.0361 0 C -.25902 .25902 -1.55415 .77707 -3.1083 1.68365 C -1.55415 .51805 -1.55415 -.51805 -3.1083 -1.68365 C -1.55415 -.77707 -.25902 -.25902 1.0361 0 Z "/>
<path transform="matrix(.86601,-.49998,-.49998,-.86601,141.66109,142.29813)" stroke-width=".79701" stroke-linecap="butt" stroke-linejoin="round" fill="none" stroke="#000000" d="M 1.0361 0 C -.25902 .25902 -1.55415 .77707 -3.1083 1.68365 C -1.55415 .51805 -1.55415 -.51805 -3.1083 -1.68365 C -1.55415 -.77707 -.25902 -.25902 1.0361 0 Z "/>
<symbol id="font_2_1">
<path d="M .117000009 .194 C .117000009 .25800003 .093 .29900003 .05300001 .29900003 C .018 .29900003 0 .272 0 .246 C 0 .22 .017000005 .193 .05300001 .193 C .069 .193 .08100001 .199 .091 .207 L .093 .209 C .094000007 .209 .095000009 .208 .095000009 .194 C .095000009 .13 .06700001 .069 .023000002 .022 C .017000005 .016000003 .016000003 .015000001 .016000003 .0109999929 C .016000003 .003999993 .021000006 0 .026 0 C .038000004 0 .117000009 .078999999 .117000009 .194 Z "/>
</symbol>
<use xlink:href="#font_2_6" transform="matrix(14.943899,0,0,-14.943899,80.54165,173.20838)"/>
<use xlink:href="#font_2_1" transform="matrix(14.943899,0,0,-14.943899,88.67113,175.92816)"/>
<use xlink:href="#font_2_7" transform="matrix(14.943899,0,0,-14.943899,91.95877,173.20838)"/>
<path transform="matrix(1,0,0,-1,89.877,19.078995)" stroke-width=".79701" stroke-linecap="butt" stroke-miterlimit="10" stroke-linejoin="miter" fill="none" stroke="#000000" d="M 50.38216 -112.63809 L -48.94756 -112.6375 "/>
<path transform="matrix(-1,-0,0,1,40.92944,131.71649)" d="M 1.0361 0 C -.25902 .25902 -1.55415 .77707 -3.1083 1.68365 C -1.55415 .51805 -1.55415 -.51805 -3.1083 -1.68365 C -1.55415 -.77707 -.25902 -.25902 1.0361 0 Z "/>
<path transform="matrix(-1,-0,0,1,40.92944,131.71649)" stroke-width=".79701" stroke-linecap="butt" stroke-linejoin="round" fill="none" stroke="#000000" d="M 1.0361 0 C -.25902 .25902 -1.55415 .77707 -3.1083 1.68365 C -1.55415 .51805 -1.55415 -.51805 -3.1083 -1.68365 C -1.55415 -.77707 -.25902 -.25902 1.0361 0 Z "/>
<use xlink:href="#font_2_6" transform="matrix(14.943899,0,0,-14.943899,80.54165,123.395389)"/>
<use xlink:href="#font_2_1" transform="matrix(14.943899,0,0,-14.943899,88.67113,126.11517)"/>
<use xlink:href="#font_2_7" transform="matrix(14.943899,0,0,-14.943899,91.95877,123.395389)"/>
<path transform="matrix(1,0,0,-1,89.877,19.078995)" stroke-width=".79701" stroke-linecap="butt" stroke-miterlimit="10" stroke-linejoin="miter" fill="none" stroke="#000000" d="M 195.0399 -13.64116 L 165.99938 -42.69034 "/>
<path transform="matrix(-.70699,.7072,.7072,.70699,255.87639,61.769334)" d="M 1.0361 0 C -.25902 .25902 -1.55415 .77707 -3.1083 1.68365 C -1.55415 .51805 -1.55415 -.51805 -3.1083 -1.68365 C -1.55415 -.77707 -.25902 -.25902 1.0361 0 Z "/>
<path transform="matrix(-.70699,.7072,.7072,.70699,255.87639,61.769334)" stroke-width=".79701" stroke-linecap="butt" stroke-linejoin="round" fill="none" stroke="#000000" d="M 1.0361 0 C -.25902 .25902 -1.55415 .77707 -3.1083 1.68365 C -1.55415 .51805 -1.55415 -.51805 -3.1083 -1.68365 C -1.55415 -.77707 -.25902 -.25902 1.0361 0 Z "/>
<use xlink:href="#font_2_6" transform="matrix(14.943899,0,0,-14.943899,257.46467,42.337388)"/>
<path transform="matrix(1,0,0,-1,89.877,19.078995)" stroke-width=".79701" stroke-linecap="butt" stroke-miterlimit="10" stroke-linejoin="miter" fill="none" stroke="#000000" d="M 222.30582 -13.6247 L 251.38047 -42.69064 "/>
<path transform="matrix(.7072,.70699,.70699,-.7072,341.25746,61.769628)" d="M 1.0361 0 C -.25902 .25902 -1.55415 .77707 -3.1083 1.68365 C -1.55415 .51805 -1.55415 -.51805 -3.1083 -1.68365 C -1.55415 -.77707 -.25902 -.25902 1.0361 0 Z "/>
<path transform="matrix(.7072,.70699,.70699,-.7072,341.25746,61.769628)" stroke-width=".79701" stroke-linecap="butt" stroke-linejoin="round" fill="none" stroke="#000000" d="M 1.0361 0 C -.25902 .25902 -1.55415 .77707 -3.1083 1.68365 C -1.55415 .51805 -1.55415 -.51805 -3.1083 -1.68365 C -1.55415 -.77707 -.25902 -.25902 1.0361 0 Z "/>
<use xlink:href="#font_2_6" transform="matrix(14.943899,0,0,-14.943899,333.43064,42.32939)"/>
<path transform="matrix(1,0,0,-1,89.877,19.078995)" stroke-width=".79701" stroke-linecap="butt" stroke-miterlimit="10" stroke-linejoin="miter" fill="none" stroke="#000000" d="M 164.99013 -70.96552 L 194.07355 -100.03792 "/>
<path transform="matrix(.70723,.70695,.70695,-.70723,283.95057,119.1169)" d="M 1.0361 0 C -.25902 .25902 -1.55415 .77707 -3.1083 1.68365 C -1.55415 .51805 -1.55415 -.51805 -3.1083 -1.68365 C -1.55415 -.77707 -.25902 -.25902 1.0361 0 Z "/>
<path transform="matrix(.70723,.70695,.70695,-.70723,283.95057,119.1169)" stroke-width=".79701" stroke-linecap="butt" stroke-linejoin="round" fill="none" stroke="#000000" d="M 1.0361 0 C -.25902 .25902 -1.55415 .77707 -3.1083 1.68365 C -1.55415 .51805 -1.55415 -.51805 -3.1083 -1.68365 C -1.55415 -.77707 -.25902 -.25902 1.0361 0 Z "/>
<use xlink:href="#font_2_7" transform="matrix(14.943899,0,0,-14.943899,275.91044,99.67239)"/>
<path transform="matrix(1,0,0,-1,89.877,19.078995)" stroke-width=".79701" stroke-linecap="butt" stroke-miterlimit="10" stroke-linejoin="miter" fill="none" stroke="#000000" d="M 252.40798 -70.98317 L 223.36994 -100.03543 "/>
<path transform="matrix(-.70691,.70726,.70726,.70691,313.24696,119.114429)" d="M 1.0361 0 C -.25902 .25902 -1.55415 .77707 -3.1083 1.68365 C -1.55415 .51805 -1.55415 -.51805 -3.1083 -1.68365 C -1.55415 -.77707 -.25902 -.25902 1.0361 0 Z "/>
<path transform="matrix(-.70691,.70726,.70726,.70691,313.24696,119.114429)" stroke-width=".79701" stroke-linecap="butt" stroke-linejoin="round" fill="none" stroke="#000000" d="M 1.0361 0 C -.25902 .25902 -1.55415 .77707 -3.1083 1.68365 C -1.55415 .51805 -1.55415 -.51805 -3.1083 -1.68365 C -1.55415 -.77707 -.25902 -.25902 1.0361 0 Z "/>
<symbol id="font_2_8">
<path d="M .083000008 .22900002 C .083000008 .39200003 .16500002 .43400003 .218 .43400003 C .227 .43400003 .29 .43300004 .32500003 .397 C .284 .39400003 .278 .36400003 .278 .351 C .278 .32500003 .296 .305 .324 .305 C .35 .305 .37 .32200004 .37 .35200004 C .37 .42000003 .294 .45900003 .21700001 .45900003 C .092 .45900003 0 .351 0 .22700002 C 0 .09900001 .099 0 .215 0 C .349 0 .381 .120000008 .381 .13000001 C .381 .14000002 .37100003 .14000002 .368 .14000002 C .359 .14000002 .35700003 .136 .35500003 .13000001 C .326 .037 .261 .025000003 .224 .025000003 C .171 .025000003 .083000008 .068 .083000008 .22900002 Z "/>
</symbol>
<use xlink:href="#font_2_8" transform="matrix(14.943899,0,0,-14.943899,315.5441,99.68036)"/>
</g>
</svg>
